# xmcd CD database file
#
# Track frame offsets:
#	150
#	33308
#	60890
#	86313
#	121698
#	157305
#	203775
#	237843
#
# Disc length: 3426 seconds
#
# Revision: 0
# Processed by: cddbd v1.5.1PL0 Copyright (c) Steve Scherf et al.
# Submitted via: CDex 1.50beta9
#
DISCID=590d6008
DTITLE=Tony Lakatos - Recycling
DYEAR=1993
DGENRE=Jazz
TTITLE0=Recycling
TTITLE1=Fusti
TTITLE2=Light Blues
TTITLE3=Sky Lark
TTITLE4=Good Bait
TTITLE5=Love I once Knew
TTITLE6=Jack's Groove
TTITLE7=Quick Tip
EXTD=YEAR: 1993
EXTT0=
EXTT1=
EXTT2=
EXTT3=
EXTT4=
EXTT5=
EXTT6=
EXTT7=
PLAYORDER=
